<?xml version="1.0" encoding="utf-8"?>
<!-- Generator: Adobe Illustrator 22.0.1, SVG Export Plug-In . SVG Version: 6.00 Build 0)  -->
<svg version="1.1" id="cmu-wordmark" xmlns="http://www.w3.org/2000/svg" xmlns:xlink="http://www.w3.org/1999/xlink" x="0px"
	 y="0px" viewBox="0 0 1366 768" style="enable-background:new 0 0 1366 768;" xml:space="preserve">
<style type="text/css">
	.st0{fill:#FFFFFF;}
</style>
<title>cmu-wordmark</title>
<polygon class="st0" points="400.6,358.6 400.6,408.9 409,408.9 409,412.3 375.4,412.3 375.4,408.9 383.8,408.9 383.8,362.2 
	377.3,362.2 377.3,358.6 "/>
<path class="st0" d="M69.3,326.1h-3c-0.1,2.6-1.5,3.8-4.1,3.8c-5.2-0.1-12.7-6.3-21.6-6.3C15.3,323.5,0,348.4,0,370.4
	c0,22,14.5,43.8,38.9,43.8c14.8,0,20.3-7,24.3-7c2.6,0,3.1,2.3,3.1,5h3.3v-30.2h-3.3l-0.7,4.2c-1.8,10-9.5,24.7-25.4,24.7
	c-14.1,0-19.5-12.2-19.5-42.1c0-31.4,7.5-42,19.9-42c14.1,0,23.7,15.8,25.7,28.3h3V326.1z"/>
<path class="st0" d="M112.6,397.8c-0.2,6.5-3.9,11.7-9.6,11.7c-8.3,0-8.6-7-8.6-12.3c0-6.5,0.7-10.7,8.6-11.6l9.6-1V397.8z
	 M134.7,401.8c0,3.2-2.1,6.8-3.5,6.8c-2.2,0-2.7-2.3-2.7-6.1v-28c0-13.9-13-17.3-25.5-17.3c-12.2,0-21,5.9-21,12.8
	c-0.3,4,2.7,7.6,6.8,7.8c0.4,0,0.7,0,1.1,0c3.8,0.3,7.2-2.5,7.5-6.3c0-0.3,0-0.7,0-1c0-6.2-6.4-6.3-6.4-6.4c0-2.8,7.1-3.6,11.3-3.6
	c9.1,0,10.3,3.4,10.3,10.7v10.2l-11.9,1c-11.1,0.8-23.1,3.8-23.1,16.4c0,10.6,9.5,14.8,18.8,14.8c4.7,0,13.1-1.9,16.3-7.7
	c2,4.9,6.9,7.9,12.2,7.7c7.9,0,13-4.7,13-11.9L134.7,401.8z"/>
<polygon class="st0" points="1265.4,358.4 1265.4,408.8 1273.8,408.8 1273.8,412.1 1240.3,412.1 1240.3,408.8 1248.6,408.8 
	1248.6,362 1240.3,362 1240.3,358.4 "/>
<path class="st0" d="M536.5,384.4l20.1-57.6h27.8v3.4h-8V409h8v3.4h-33.4v-3.4h8.1V331h-0.2l-28.3,81.2h-3.3l-29-82.6h-0.2v68.9
	c0,9.8,2.6,10.4,9.1,10.4h0.4v3.4h-21v-3.4l0,0c6.9,0,8.2-4.1,8.2-9.3v-69.4h-8.2v-3.5h30.5L536.5,384.4z"/>
<path class="st0" d="M603.8,379.5v-8.2c0-8.1,3.5-10.7,7.7-10.7c5.8,0,7.7,4,7.7,10.7v8.2L603.8,379.5z M603.8,382.8h33.6
	c-0.1-13.1-12.3-25.8-25-25.5c-14.4,0-26.8,12.4-26.8,28.8c0,15.8,11.6,27.6,27.1,27.6c15,0,22.4-9.2,25-21.3h-3.3
	c-2.7,11.3-8.6,17.7-18.1,17.7c-11.3,0-12.5-8.9-12.5-17.1L603.8,382.8z"/>
<path class="st0" d="M1108.9,379.4v-8.2c0-8.1,3.5-10.7,7.7-10.7c5.8,0,7.7,4,7.7,10.7v8.2H1108.9z M1108.9,382.7h33.6
	c-0.1-13.1-12.3-25.8-25-25.5c-14.4,0-26.8,12.4-26.8,28.8c0,15.8,11.6,27.6,27.1,27.6c15,0,22.4-9.2,25-21.3h-3.4
	c-2.7,11.3-8.6,17.7-18.1,17.7c-11.3,0-12.5-8.9-12.5-17.1V382.7z"/>
<polygon class="st0" points="637.5,326.9 637.5,330 645.9,330 645.9,408.8 637.5,408.8 637.5,412.3 671.1,412.3 671.1,408.8 
	662.7,408.8 662.7,326.9 "/>
<polygon class="st0" points="673.4,326.9 673.4,330 681.8,330 681.8,408.8 673.4,408.8 673.4,412.3 707,412.3 707,408.8 
	698.6,408.8 698.6,326.9 "/>
<path class="st0" d="M745.6,397.6c0,9.1-3.8,12.9-10,12.9s-10-3.8-10-12.9v-23.9c0-9.1,3.8-12.9,10-12.9s10,3.8,10,12.9V397.6z
	 M764.6,385.5c0-16.7-12.9-28.1-28.9-28.1s-28.9,11.6-28.9,28.1s12.9,28.1,28.9,28.1S764.6,402.1,764.6,385.5"/>
<path class="st0" d="M851.8,329.7h8.5v54c0,18.8,13,30.3,32.8,30.3c22.4,0,32.1-11.8,32.1-29.7v-46.2c0-7.1,1.9-8.4,6.3-8.4h2.5
	v-3.3h-21.4v3.3h1.5c6.2,0,7.1,1.9,7.1,8.9v46.8c0,16.5-10.3,24.1-20.6,24.1c-17.7,0-21.3-11.9-22.3-27.5v-52.3h8v-3.3h-34.4V329.7z
	"/>
<path class="st0" d="M1062.5,413.5h3.3l18-42.5c3.6-8,5.6-8.9,8.4-9.1h1.1v-3.3h-19v3.4h2.3c3.5,0,5.1-0.2,5.1,2.9
	c-0.2,2.6-0.9,5.1-2.1,7.4l-8.3,19.5l-13.3-29.8h6.8v-3.4h-30.4v3.4h5.6L1062.5,413.5z"/>
<path class="st0" d="M1197.9,413.5h2.9c0.5-1.9,2.3-3.2,4.3-2.9c3.2,0,6.9,2.9,13.7,2.9c10.8-0.2,19.5-9.1,19.5-19.9
	c0-14.8-10.2-15.9-23.2-17.7c-6.8-1-10.7-1.9-10.7-7.3c0-5.6,5-8.1,11.6-8.1c9.1,0,12.7,6,15.7,14h2.9v-17.3h-2.8
	c0,1.5-1.3,2.7-3.6,2.7c-3.9,0-7.1-2.7-12.6-2.7c-10,0-18.1,8-18.1,18c0,0,0,0.1,0,0.1c0,15.7,11.9,17,21.2,18.1
	c8.8,1.1,11.9,1.7,11.9,7.2c0,6.4-5.3,9.4-11.9,9.4c-9.2,0-15.6-8-17.8-16.9h-2.9L1197.9,413.5z"/>
<polygon class="st0" points="1029.9,358.4 1029.9,408.8 1038.3,408.8 1038.3,412.1 1004.8,412.1 1004.8,408.8 1013.1,408.8 
	1013.1,362 1004.8,362 1004.8,358.4 "/>
<path class="st0" d="M1013.2,341.6c0,4.6,3.8,8.4,8.4,8.3c4.6,0,8.4-3.8,8.3-8.4c0-4.6-3.8-8.3-8.4-8.3
	C1016.9,333.3,1013.2,337,1013.2,341.6C1013.2,341.6,1013.2,341.6,1013.2,341.6"/>
<path class="st0" d="M1248.6,341.6c0,4.6,3.8,8.4,8.4,8.3c4.6,0,8.4-3.8,8.3-8.4c0-4.6-3.8-8.4-8.4-8.3c0,0,0,0,0,0
	C1252.3,333.3,1248.6,337,1248.6,341.6C1248.6,341.6,1248.6,341.6,1248.6,341.6"/>
<path class="st0" d="M281,379.5v-8.2c0-8.1,3.5-10.7,7.7-10.7c5.8,0,7.7,4,7.7,10.7v8.2L281,379.5z M281,382.8h33.6
	c-0.1-13.1-12.3-25.8-25-25.5c-14.4,0-26.8,12.4-26.8,28.8c0,15.8,11.6,27.6,27.1,27.6c15,0,22.4-9.2,25-21.3h-3.3
	c-2.7,11.3-8.6,17.7-18.1,17.7c-11.3,0-12.5-8.9-12.5-17.1L281,382.8z"/>
<path class="st0" d="M427.7,379.5v-8.2c0-8.1,3.5-10.7,7.7-10.7c4.1,0,7.7,2.5,7.7,10.7v8.2L427.7,379.5z M427.7,382.8h33.6
	c-0.1-13.1-12.3-25.8-25-25.5c-14.4,0-26.8,12.4-26.8,28.8c0,15.8,11.6,27.6,27.1,27.6c15,0,22.4-9.2,25-21.3h-3.3
	c-2.7,11.3-8.6,17.7-18.1,17.7c-11.3,0-12.5-8.9-12.5-17.1L427.7,382.8z"/>
<path class="st0" d="M994,408.8V376c0-13.1-5.6-19.3-17.1-19.3c-8.2,0-16.4,4.7-19.7,11.7l0,0v-9.9H932v3.3h8.4v46.9H932v3.3h32.3
	v-3.3h-7.1v-32.1c1.1-4.5,6.8-15,13.4-15c4.4,0,6.7,1.5,6.7,9.7v37.3h-6.9v3.3h32.1v-3.2H994z"/>
<path class="st0" d="M789.7,358.8v9.8l0,0c3.3-7.1,11.5-11.7,19.7-11.7c11.6,0,17.1,6.1,17.1,19.3V409h8.3v3.3h-32V409h6.9v-37.3
	c0-8.2-2.2-9.7-6.7-9.7c-6.6,0-12.4,10.4-13.4,15v32.1h7.2v3.3h-32.3V409h8.4v-46.9h-8.4v-3.3H789.7z"/>
<path class="st0" d="M254.2,409v-32.8c0-13.1-5.6-19.3-17.1-19.3c-8.2,0-16.4,4.7-19.7,11.7l0,0v-9.8h-25.2v3.3h8.4v46.9h-8.4v3.3
	h32.3V409h-7.2v-32.1c1.1-4.5,6.8-15,13.4-15c4.4,0,6.7,1.5,6.7,9.7v37.3h-6.9v3.3h32.1V409H254.2z"/>
<path class="st0" d="M383.9,342c0,4.6,3.8,8.4,8.4,8.3c4.6,0,8.4-3.8,8.3-8.4c0-4.6-3.8-8.3-8.4-8.3
	C387.6,333.6,383.9,337.3,383.9,342C383.9,341.9,383.9,341.9,383.9,342"/>
<path class="st0" d="M1347,358.4v3.5c5.2,0,7.5,0.5,7.5,2.8c-0.2,2.6-0.9,5.1-2.1,7.4l-8.3,19.5L1331,362h6.9v-3.5h-42v-26.1h-2.2
	c0,12.9-8.8,26.1-21,26.1v3.5h6.5v37.6c-0.3,7.4,5.4,13.6,12.8,13.9c0.2,0,0.4,0,0.6,0c6.8,0.3,13.1-3.4,16.2-9.4l-2.6-1.4
	c-1.5,2.2-3.4,5.1-6.4,5.1c-2.4,0-3.8-1.7-3.8-5.7v-40h16.9l22.2,51.2l-7.7,18.1l0,0l0,0c-0.2,0.4-0.5,0.6-0.9,0.6
	c-0.4,0-0.8-0.3-1-0.7l0,0c-1.2-4.5-5.9-7.1-10.3-5.8c-4.5,1.2-7.1,5.9-5.8,10.3c0.6,2.3,2.2,4.2,4.3,5.2l0,0l0.3,0.1l0.5,0.2
	c1,0.4,2,0.6,3.1,0.6c7.1,0.6,10.7-4.6,13.1-9.9c0.6-1.2,1.1-2.4,1.6-3.6c1.1-2.6,2.9-7,5.1-12.2l0,0l2.2-4.9l0,0l17.1-40.4
	c3.6-8,5-9,9.4-9l0,0v-3.5H1347z"/>
<path class="st0" d="M180,356.7c-7.2,0.1-13.6,4.7-16.1,11.4h-0.2v-9.2h-24.9v3.4h8.4v46.8h-8.4v3.3h36.3v-3.3h-11.3v-26.3
	c0-7.8,2-15.8,7.2-20.2c0.4-0.3,1.1-0.3,1.4,0.2c0.2,0.2,0.2,0.5,0.2,0.8l0,0c-0.4,1.1-0.6,2.3-0.7,3.5c0,4.3,3.5,7.9,7.8,7.9
	c0.2,0,0.3,0,0.5,0c4.8,0.3,9-3.5,9.2-8.3c0-0.2,0-0.4,0-0.6C189.6,360.3,185.7,356.7,180,356.7z"/>
<path class="st0" d="M363,360.7c0.2,0,0.5-0.2,0.7,0c0.2,0.2,0.2,0.5,0,0.7l0,0c-0.8,1.3-1,3-0.5,4.5c0.6,1.7,2,2.9,3.8,3.3
	c2.8,0.7,5.6-1,6.4-3.8c0.1-0.4,0.2-0.9,0.2-1.3c-0.1-2-1.1-3.8-2.9-4.7c-1.6-1-3.5-1.5-5.3-1.4c-3.3,0.2-6.5,1.5-8.9,3.8l0,0
	c-0.6-0.4-1.1-0.8-1.7-1.1c-4.1-2.3-8.8-3.4-13.5-3.2c-10.2,0-21.2,6.7-21.2,17.7c0,6.6,4,12.5,10.1,14.8v0.2
	c-7.2,0.6-12.6,6.9-12.2,14.1c0,6.1,2.8,10.7,7.9,12.2v0.2c-4.9,1.3-10.5,6.2-10.5,12c0,9,10.6,15.9,24.1,15.9
	c16.9,0,28-11.4,28-26.3c0-11.8-5.8-17.1-17.7-16.9h-20.2c-3,0-5.1-0.1-5.1-3.4s4.7-6.3,9.3-6.3c0.9,0.1,1.7,0.4,2.5,0.7
	c1.6,0.5,3.3,0.8,5,0.7c10.4,0,21.6-6,21.6-17.5c-0.1-4.3-1.7-8.4-4.5-11.6c-0.2-0.2-0.2-0.4,0-0.6c0,0,0,0,0,0
	c1-0.8,2.1-1.5,3.2-2.1C361.9,361.1,362.4,360.9,363,360.7L363,360.7z M346.8,416.6c12.2,0,15.4,0.5,15.4,7.9c0,8.9-10.9,17-23.1,17
	c-10.9,0-16.2-6.7-16.4-12.6c0-5.3,2.7-8.9,5.9-12.4H346.8z M348.9,375.1c0,14.1-3.3,14.6-7.7,14.6c-4.9,0-7.5-0.9-7.5-15
	c0-9.8,1.1-14,7.5-14C346.9,360.7,348.8,361,348.9,375.1L348.9,375.1z"/>
<path class="st0" d="M1185,356.2c-7.2,0.1-13.6,4.7-16.1,11.4h-0.2v-9.2h-25v3.4h8.4v46.8h-8.4v3.3h36.4v-3.3h-11.3v-26.3
	c0-7.8,2-15.8,7.2-20.2c0.4-0.3,1.1-0.3,1.4,0.2c0.2,0.2,0.2,0.5,0.2,0.8l0,0c-0.4,1.1-0.6,2.3-0.6,3.4c0,4.3,3.5,7.9,7.8,7.9
	c0.2,0,0.3,0,0.5,0c4.8,0.3,9-3.5,9.2-8.3c0-0.2,0-0.4,0-0.6C1194.6,359.8,1190.7,356.2,1185,356.2z"/>
</svg>
